<svg width="48" height="48" viewBox="0 0 48 48" fill="none" xmlns="http://www.w3.org/2000/svg">
<path d="M0 16C0 7.16344 7.16344 0 16 0H32C40.8366 0 48 7.16344 48 16V32C48 40.8366 40.8366 48 32 48H16C7.16344 48 0 40.8366 0 32V16Z" fill="#2E335B"/>
<path d="M18.75 25.875H29.25" stroke="white" stroke-width="1.75" stroke-linecap="round" stroke-linejoin="round"/>
<path d="M15.25 21.5V18.875C15.25 17.9467 15.6187 17.0565 16.2751 16.4001C16.9315 15.7437 17.8217 15.375 18.75 15.375H29.25C30.1783 15.375 31.0685 15.7437 31.7249 16.4001C32.3813 17.0565 32.75 17.9467 32.75 18.875V21.5" stroke="white" stroke-width="1.75" stroke-linecap="round" stroke-linejoin="round"/>
<path d="M18.75 29.375V25C18.75 24.3078 18.5447 23.6311 18.1601 23.0555C17.7756 22.4799 17.2289 22.0313 16.5894 21.7664C15.9499 21.5015 15.2461 21.4322 14.5672 21.5673C13.8883 21.7023 13.2646 22.0356 12.7751 22.5251C12.2856 23.0146 11.9523 23.6383 11.8173 24.3172C11.6822 24.9961 11.7515 25.6999 12.0164 26.3394C12.2813 26.9789 12.7299 27.5256 13.3055 27.9101C13.8811 28.2947 14.5578 28.5 15.25 28.5V32.875C15.25 33.1071 15.3422 33.3296 15.5063 33.4937C15.6704 33.6578 15.8929 33.75 16.125 33.75H31.875C32.1071 33.75 32.3296 33.6578 32.4937 33.4937C32.6578 33.3296 32.75 33.1071 32.75 32.875V28.5C33.4422 28.5 34.1189 28.2947 34.6945 27.9101C35.2701 27.5256 35.7187 26.9789 35.9836 26.3394C36.2485 25.6999 36.3178 24.9961 36.1828 24.3172C36.0477 23.6383 35.7144 23.0146 35.2249 22.5251C34.7354 22.0356 34.1118 21.7023 33.4328 21.5673C32.7539 21.4322 32.0502 21.5015 31.4106 21.7664C30.7711 22.0313 30.2244 22.4799 29.8399 23.0555C29.4553 23.6311 29.25 24.3078 29.25 25V29.375" stroke="white" stroke-width="1.75" stroke-linecap="round" stroke-linejoin="round"/>
</svg>
